<mxfile host="65bd71144e">
    <diagram id="xDpfQ2xx_pJfGpRfY9H-" name="Page-1">
        <mxGraphModel dx="2230" dy="1126" grid="1" gridSize="10" guides="1" tooltips="1" connect="1" arrows="1" fold="1" page="1" pageScale="1" pageWidth="850" pageHeight="1100" math="0" shadow="0">
            <root>
                <mxCell id="0"/>
                <mxCell id="1" parent="0"/>
                <mxCell id="260" value="&lt;p style=&quot;margin:0px;margin-top:6px;text-align:center;&quot;&gt;&lt;span style=&quot;color: rgb(0, 0, 0);&quot;&gt;«Subsystem»&lt;/span&gt;&lt;/p&gt;&lt;p style=&quot;margin:0px;margin-top:6px;text-align:center;&quot;&gt;&lt;b&gt;Robot&lt;/b&gt;&lt;/p&gt;&lt;p style=&quot;margin:0px;margin-left:8px;&quot;&gt;&lt;br&gt;&lt;/p&gt;" style="align=left;overflow=fill;html=1;dropTarget=0;whiteSpace=wrap;" vertex="1" parent="1">
                    <mxGeometry x="15" y="23" width="1075" height="487" as="geometry"/>
                </mxCell>
                <mxCell id="261" value="" style="shape=component;jettyWidth=8;jettyHeight=4;" vertex="1" parent="260">
                    <mxGeometry x="1" width="20" height="20" relative="1" as="geometry">
                        <mxPoint x="-24" y="41" as="offset"/>
                    </mxGeometry>
                </mxCell>
                <mxCell id="296" value="&lt;p style=&quot;margin:0px;margin-top:6px;text-align:center;&quot;&gt;&lt;span style=&quot;color: rgb(0, 0, 0);&quot;&gt;«Subsystem»&lt;/span&gt;&lt;/p&gt;&lt;p style=&quot;margin:0px;margin-top:6px;text-align:center;&quot;&gt;&lt;b&gt;Alarm&lt;/b&gt;&lt;/p&gt;&lt;p style=&quot;margin:0px;margin-left:8px;&quot;&gt;&lt;br&gt;&lt;/p&gt;" style="align=left;overflow=fill;html=1;dropTarget=0;whiteSpace=wrap;" vertex="1" parent="1">
                    <mxGeometry x="1500" y="479.5" width="644" height="480.5" as="geometry"/>
                </mxCell>
                <mxCell id="297" value="" style="shape=component;jettyWidth=8;jettyHeight=4;" vertex="1" parent="296">
                    <mxGeometry x="1" width="20" height="20" relative="1" as="geometry">
                        <mxPoint x="-24" y="4" as="offset"/>
                    </mxGeometry>
                </mxCell>
                <mxCell id="166" value="&lt;p style=&quot;margin:0px;margin-top:6px;text-align:center;&quot;&gt;&lt;span style=&quot;color: rgb(0, 0, 0);&quot;&gt;«Subsystem»&lt;/span&gt;&lt;/p&gt;&lt;p style=&quot;margin:0px;margin-top:6px;text-align:center;&quot;&gt;&lt;b&gt;Visual Perception&lt;/b&gt;&lt;/p&gt;&lt;p style=&quot;margin:0px;margin-left:8px;&quot;&gt;&lt;br&gt;&lt;/p&gt;" style="align=left;overflow=fill;html=1;dropTarget=0;whiteSpace=wrap;" vertex="1" parent="1">
                    <mxGeometry x="690" y="121" width="310" height="370" as="geometry"/>
                </mxCell>
                <mxCell id="167" value="" style="shape=component;jettyWidth=8;jettyHeight=4;" vertex="1" parent="166">
                    <mxGeometry x="1" width="20" height="20" relative="1" as="geometry">
                        <mxPoint x="-24" y="41" as="offset"/>
                    </mxGeometry>
                </mxCell>
                <mxCell id="247" value="&lt;p style=&quot;margin:0px;margin-top:6px;text-align:center;&quot;&gt;&lt;span style=&quot;color: rgb(0, 0, 0);&quot;&gt;«Subsystem»&lt;/span&gt;&lt;/p&gt;&lt;p style=&quot;margin:0px;margin-top:6px;text-align:center;&quot;&gt;&lt;b&gt;Talking Components&lt;/b&gt;&lt;/p&gt;&lt;p style=&quot;margin:0px;margin-left:8px;&quot;&gt;&lt;br&gt;&lt;/p&gt;" style="align=left;overflow=fill;html=1;dropTarget=0;whiteSpace=wrap;" vertex="1" parent="1">
                    <mxGeometry x="290" y="120" width="260" height="283" as="geometry"/>
                </mxCell>
                <mxCell id="248" value="" style="shape=component;jettyWidth=8;jettyHeight=4;" vertex="1" parent="247">
                    <mxGeometry x="1" width="20" height="20" relative="1" as="geometry">
                        <mxPoint x="-24" y="41" as="offset"/>
                    </mxGeometry>
                </mxCell>
                <mxCell id="69" value="" style="html=1;dropTarget=0;whiteSpace=wrap;" parent="1" vertex="1">
                    <mxGeometry x="190" y="692" width="630" height="330" as="geometry"/>
                </mxCell>
                <mxCell id="70" value="" style="shape=module;jettyWidth=8;jettyHeight=4;" parent="69" vertex="1">
                    <mxGeometry x="1" width="20" height="20" relative="1" as="geometry">
                        <mxPoint x="-27" y="7" as="offset"/>
                    </mxGeometry>
                </mxCell>
                <mxCell id="19" value="«Component»&lt;br&gt;&lt;b&gt;Microphones&lt;/b&gt;" style="html=1;dropTarget=0;whiteSpace=wrap;" parent="1" vertex="1">
                    <mxGeometry x="310" y="176" width="180" height="90" as="geometry"/>
                </mxCell>
                <mxCell id="20" value="" style="shape=module;jettyWidth=8;jettyHeight=4;" parent="19" vertex="1">
                    <mxGeometry x="1" width="20" height="20" relative="1" as="geometry">
                        <mxPoint x="-27" y="7" as="offset"/>
                    </mxGeometry>
                </mxCell>
                <mxCell id="21" value="«Component»&lt;br&gt;&lt;b&gt;Speakers&lt;/b&gt;" style="html=1;dropTarget=0;whiteSpace=wrap;" parent="1" vertex="1">
                    <mxGeometry x="310" y="279" width="180" height="90" as="geometry"/>
                </mxCell>
                <mxCell id="22" value="" style="shape=module;jettyWidth=8;jettyHeight=4;" parent="21" vertex="1">
                    <mxGeometry x="1" width="20" height="20" relative="1" as="geometry">
                        <mxPoint x="-27" y="7" as="offset"/>
                    </mxGeometry>
                </mxCell>
                <mxCell id="51" value="" style="html=1;rounded=0;" parent="1" vertex="1">
                    <mxGeometry x="680" y="319" width="30" height="30" as="geometry"/>
                </mxCell>
                <mxCell id="64" value="" style="rounded=0;orthogonalLoop=1;jettySize=auto;html=1;endArrow=halfCircle;endFill=0;endSize=6;strokeWidth=1;sketch=0;fontSize=12;curved=1;exitX=0.5;exitY=0;exitDx=0;exitDy=0;entryX=0.985;entryY=0.769;entryDx=0;entryDy=0;entryPerimeter=0;" parent="1" source="72" target="246" edge="1">
                    <mxGeometry relative="1" as="geometry">
                        <mxPoint x="-144.70000000000005" y="542.7" as="sourcePoint"/>
                        <mxPoint x="-290.4800000000005" y="498.52" as="targetPoint"/>
                        <Array as="points">
                            <mxPoint x="590" y="400"/>
                        </Array>
                    </mxGeometry>
                </mxCell>
                <mxCell id="67" value="«Component»&lt;br&gt;&lt;b&gt;Crack_Detection&lt;/b&gt;" style="html=1;dropTarget=0;whiteSpace=wrap;" parent="1" vertex="1">
                    <mxGeometry x="425" y="782" width="180" height="90" as="geometry"/>
                </mxCell>
                <mxCell id="68" value="" style="shape=module;jettyWidth=8;jettyHeight=4;" parent="67" vertex="1">
                    <mxGeometry x="1" width="20" height="20" relative="1" as="geometry">
                        <mxPoint x="-27" y="7" as="offset"/>
                    </mxGeometry>
                </mxCell>
                <mxCell id="71" value="&amp;lt;&amp;lt;Subsystem&amp;gt;&amp;gt;&lt;br&gt;Structural_Risk_Assessment" style="text;html=1;align=center;verticalAlign=middle;whiteSpace=wrap;rounded=0;" parent="1" vertex="1">
                    <mxGeometry x="592" y="692" width="110" height="40" as="geometry"/>
                </mxCell>
                <mxCell id="72" value="" style="html=1;rounded=0;" parent="1" vertex="1">
                    <mxGeometry x="361" y="672" width="30" height="30" as="geometry"/>
                </mxCell>
                <mxCell id="73" value="" style="html=1;rounded=0;" parent="1" vertex="1">
                    <mxGeometry x="543" y="672" width="30" height="30" as="geometry"/>
                </mxCell>
                <mxCell id="74" value="" style="html=1;rounded=0;" parent="1" vertex="1">
                    <mxGeometry x="721" y="672" width="30" height="30" as="geometry"/>
                </mxCell>
                <mxCell id="76" value="" style="endArrow=none;html=1;rounded=0;align=center;verticalAlign=top;endFill=0;labelBackgroundColor=none;endSize=2;" parent="1" source="78" edge="1">
                    <mxGeometry relative="1" as="geometry">
                        <mxPoint x="376" y="732" as="targetPoint"/>
                    </mxGeometry>
                </mxCell>
                <mxCell id="77" value="" style="endArrow=none;html=1;rounded=0;align=center;verticalAlign=top;endFill=0;labelBackgroundColor=none;endSize=2;" parent="1" target="78" edge="1">
                    <mxGeometry relative="1" as="geometry">
                        <mxPoint x="376" y="702" as="sourcePoint"/>
                        <mxPoint x="376" y="732" as="targetPoint"/>
                    </mxGeometry>
                </mxCell>
                <mxCell id="78" value="" style="ellipse;html=1;fontSize=11;align=center;fillColor=#191919;points=[];aspect=fixed;resizable=0;verticalAlign=bottom;labelPosition=center;verticalLabelPosition=top;flipH=1;" parent="1" vertex="1">
                    <mxGeometry x="372" y="732" width="8" height="8" as="geometry"/>
                </mxCell>
                <mxCell id="80" value="" style="endArrow=none;html=1;rounded=0;align=center;verticalAlign=top;endFill=0;labelBackgroundColor=none;endSize=2;" parent="1" target="81" edge="1">
                    <mxGeometry relative="1" as="geometry">
                        <mxPoint x="558" y="702" as="sourcePoint"/>
                        <mxPoint x="558" y="732" as="targetPoint"/>
                    </mxGeometry>
                </mxCell>
                <mxCell id="81" value="" style="ellipse;html=1;fontSize=11;align=center;fillColor=#191919;points=[];aspect=fixed;resizable=0;verticalAlign=bottom;labelPosition=center;verticalLabelPosition=top;flipH=1;" parent="1" vertex="1">
                    <mxGeometry x="554" y="732" width="8" height="8" as="geometry"/>
                </mxCell>
                <mxCell id="82" value="" style="endArrow=none;html=1;rounded=0;align=center;verticalAlign=top;endFill=0;labelBackgroundColor=none;endSize=2;" parent="1" target="83" edge="1">
                    <mxGeometry relative="1" as="geometry">
                        <mxPoint x="736" y="702" as="sourcePoint"/>
                        <mxPoint x="736" y="732" as="targetPoint"/>
                    </mxGeometry>
                </mxCell>
                <mxCell id="83" value="" style="ellipse;html=1;fontSize=11;align=center;fillColor=#191919;points=[];aspect=fixed;resizable=0;verticalAlign=bottom;labelPosition=center;verticalLabelPosition=top;flipH=1;" parent="1" vertex="1">
                    <mxGeometry x="732" y="732" width="8" height="8" as="geometry"/>
                </mxCell>
                <mxCell id="84" value="" style="rounded=0;orthogonalLoop=1;jettySize=auto;html=1;endArrow=halfCircle;endFill=0;endSize=6;strokeWidth=1;sketch=0;fontSize=12;curved=1;exitX=0.25;exitY=0;exitDx=0;exitDy=0;entryX=0.643;entryY=1.054;entryDx=0;entryDy=0;entryPerimeter=0;" parent="1" source="67" target="78" edge="1">
                    <mxGeometry relative="1" as="geometry">
                        <mxPoint x="371.42999999999995" y="842" as="sourcePoint"/>
                        <mxPoint x="371.72" y="812" as="targetPoint"/>
                    </mxGeometry>
                </mxCell>
                <mxCell id="85" value="" style="rounded=0;orthogonalLoop=1;jettySize=auto;html=1;endArrow=halfCircle;endFill=0;endSize=6;strokeWidth=1;sketch=0;fontSize=12;curved=1;exitX=0.75;exitY=0;exitDx=0;exitDy=0;" parent="1" source="67" edge="1">
                    <mxGeometry relative="1" as="geometry">
                        <mxPoint x="447" y="842" as="sourcePoint"/>
                        <mxPoint x="560" y="739" as="targetPoint"/>
                    </mxGeometry>
                </mxCell>
                <mxCell id="86" value="" style="rounded=0;orthogonalLoop=1;jettySize=auto;html=1;endArrow=halfCircle;endFill=0;endSize=6;strokeWidth=1;sketch=0;fontSize=12;curved=1;entryX=0.571;entryY=0.839;entryDx=0;entryDy=0;entryPerimeter=0;exitX=1;exitY=0;exitDx=0;exitDy=0;" parent="1" source="67" target="83" edge="1">
                    <mxGeometry relative="1" as="geometry">
                        <mxPoint x="482" y="852" as="sourcePoint"/>
                        <mxPoint x="563" y="749" as="targetPoint"/>
                    </mxGeometry>
                </mxCell>
                <mxCell id="88" value="" style="html=1;rounded=0;" parent="1" vertex="1">
                    <mxGeometry x="810" y="792" width="30" height="30" as="geometry"/>
                </mxCell>
                <mxCell id="93" value="" style="endArrow=none;html=1;rounded=0;align=center;verticalAlign=top;endFill=0;labelBackgroundColor=none;endSize=2;exitX=0.5;exitY=0.768;exitDx=0;exitDy=0;exitPerimeter=0;entryX=1;entryY=0.25;entryDx=0;entryDy=0;" parent="1" source="92" target="67" edge="1">
                    <mxGeometry relative="1" as="geometry">
                        <mxPoint x="569.71" y="602" as="sourcePoint"/>
                        <mxPoint x="569.71" y="632" as="targetPoint"/>
                    </mxGeometry>
                </mxCell>
                <mxCell id="94" value="" style="rounded=0;orthogonalLoop=1;jettySize=auto;html=1;endArrow=halfCircle;endFill=0;endSize=6;strokeWidth=1;sketch=0;fontSize=12;curved=1;exitX=0.5;exitY=0;exitDx=0;exitDy=0;" parent="1" target="92" edge="1">
                    <mxGeometry relative="1" as="geometry">
                        <mxPoint x="810" y="806.66" as="sourcePoint"/>
                        <mxPoint x="789.71" y="806.66" as="targetPoint"/>
                    </mxGeometry>
                </mxCell>
                <mxCell id="92" value="" style="ellipse;html=1;fontSize=11;align=center;fillColor=#191919;points=[];aspect=fixed;resizable=0;verticalAlign=bottom;labelPosition=center;verticalLabelPosition=top;flipH=1;" parent="1" vertex="1">
                    <mxGeometry x="780" y="804" width="8" height="8" as="geometry"/>
                </mxCell>
                <mxCell id="99" value="" style="endArrow=none;html=1;rounded=0;align=center;verticalAlign=top;endFill=0;labelBackgroundColor=none;endSize=2;exitX=1;exitY=0.5;exitDx=0;exitDy=0;" parent="1" target="101" edge="1">
                    <mxGeometry relative="1" as="geometry">
                        <mxPoint x="840" y="808" as="sourcePoint"/>
                        <mxPoint x="779.71" y="643" as="targetPoint"/>
                    </mxGeometry>
                </mxCell>
                <mxCell id="101" value="" style="ellipse;html=1;fontSize=11;align=center;fillColor=#191919;points=[];aspect=fixed;resizable=0;verticalAlign=bottom;labelPosition=center;verticalLabelPosition=top;flipH=1;" parent="1" vertex="1">
                    <mxGeometry x="870" y="903" width="8" height="8" as="geometry"/>
                </mxCell>
                <mxCell id="104" value="" style="rounded=0;orthogonalLoop=1;jettySize=auto;html=1;endArrow=halfCircle;endFill=0;endSize=6;strokeWidth=1;sketch=0;fontSize=12;curved=1;exitX=0.5;exitY=1;exitDx=0;exitDy=0;entryX=0.339;entryY=0.518;entryDx=0;entryDy=0;entryPerimeter=0;" parent="1" source="187" target="101" edge="1">
                    <mxGeometry relative="1" as="geometry">
                        <mxPoint x="1300" y="1005" as="sourcePoint"/>
                        <mxPoint x="378" y="551" as="targetPoint"/>
                        <Array as="points">
                            <mxPoint x="1800" y="1110"/>
                        </Array>
                    </mxGeometry>
                </mxCell>
                <mxCell id="109" value="«Component»&lt;br&gt;&lt;b&gt;Motor_Controller&lt;/b&gt;" style="html=1;dropTarget=0;whiteSpace=wrap;" parent="1" vertex="1">
                    <mxGeometry x="66" y="266" width="180" height="90" as="geometry"/>
                </mxCell>
                <mxCell id="110" value="" style="shape=module;jettyWidth=8;jettyHeight=4;" parent="109" vertex="1">
                    <mxGeometry x="1" width="20" height="20" relative="1" as="geometry">
                        <mxPoint x="-27" y="7" as="offset"/>
                    </mxGeometry>
                </mxCell>
                <mxCell id="131" value="«Component»&lt;br&gt;&lt;b&gt;Assessment_Movement&lt;/b&gt;" style="html=1;dropTarget=0;whiteSpace=wrap;" parent="1" vertex="1">
                    <mxGeometry x="200" y="782" width="180" height="90" as="geometry"/>
                </mxCell>
                <mxCell id="132" value="" style="shape=module;jettyWidth=8;jettyHeight=4;" parent="131" vertex="1">
                    <mxGeometry x="1" width="20" height="20" relative="1" as="geometry">
                        <mxPoint x="-27" y="7" as="offset"/>
                    </mxGeometry>
                </mxCell>
                <mxCell id="134" value="" style="rounded=0;orthogonalLoop=1;jettySize=auto;html=1;endArrow=halfCircle;endFill=0;endSize=6;strokeWidth=1;sketch=0;fontSize=12;curved=1;exitX=1;exitY=0.5;exitDx=0;exitDy=0;" parent="1" source="131" edge="1">
                    <mxGeometry relative="1" as="geometry">
                        <mxPoint x="380" y="826.8199999999999" as="sourcePoint"/>
                        <mxPoint x="400" y="826.8199999999999" as="targetPoint"/>
                    </mxGeometry>
                </mxCell>
                <mxCell id="135" value="" style="endArrow=none;html=1;rounded=0;align=center;verticalAlign=top;endFill=0;labelBackgroundColor=none;endSize=2;exitX=0;exitY=0.5;exitDx=0;exitDy=0;" parent="1" source="67" target="136" edge="1">
                    <mxGeometry relative="1" as="geometry">
                        <mxPoint x="418" y="827" as="sourcePoint"/>
                        <mxPoint x="382" y="823" as="targetPoint"/>
                    </mxGeometry>
                </mxCell>
                <mxCell id="136" value="" style="ellipse;html=1;fontSize=11;align=center;fillColor=#191919;points=[];aspect=fixed;resizable=0;verticalAlign=bottom;labelPosition=center;verticalLabelPosition=top;flipH=1;" parent="1" vertex="1">
                    <mxGeometry x="400" y="823" width="8" height="8" as="geometry"/>
                </mxCell>
                <mxCell id="138" value="" style="fontStyle=0;labelPosition=right;verticalLabelPosition=middle;align=left;verticalAlign=middle;spacingLeft=2;" parent="1" vertex="1">
                    <mxGeometry x="230" y="672" width="30" height="30" as="geometry"/>
                </mxCell>
                <mxCell id="141" value="«Component»&lt;br&gt;&lt;b&gt;Risk_Classificator&lt;/b&gt;" style="html=1;dropTarget=0;whiteSpace=wrap;" parent="1" vertex="1">
                    <mxGeometry x="430" y="922" width="180" height="90" as="geometry"/>
                </mxCell>
                <mxCell id="142" value="" style="shape=module;jettyWidth=8;jettyHeight=4;" parent="141" vertex="1">
                    <mxGeometry x="1" width="20" height="20" relative="1" as="geometry">
                        <mxPoint x="-27" y="7" as="offset"/>
                    </mxGeometry>
                </mxCell>
                <mxCell id="143" value="" style="rounded=0;orthogonalLoop=1;jettySize=auto;html=1;endArrow=halfCircle;endFill=0;endSize=6;strokeWidth=1;sketch=0;fontSize=12;curved=1;exitX=0.473;exitY=0.003;exitDx=0;exitDy=0;exitPerimeter=0;entryX=0.487;entryY=0.685;entryDx=0;entryDy=0;entryPerimeter=0;" parent="1" source="141" target="145" edge="1">
                    <mxGeometry relative="1" as="geometry">
                        <mxPoint x="519" y="906" as="sourcePoint"/>
                        <mxPoint x="539" y="905.8199999999999" as="targetPoint"/>
                    </mxGeometry>
                </mxCell>
                <mxCell id="144" value="" style="endArrow=none;html=1;rounded=0;align=center;verticalAlign=top;endFill=0;labelBackgroundColor=none;endSize=2;exitX=0.5;exitY=1;exitDx=0;exitDy=0;" parent="1" source="67" target="145" edge="1">
                    <mxGeometry relative="1" as="geometry">
                        <mxPoint x="564" y="906" as="sourcePoint"/>
                        <mxPoint x="521" y="902" as="targetPoint"/>
                    </mxGeometry>
                </mxCell>
                <mxCell id="145" value="" style="ellipse;html=1;fontSize=11;align=center;fillColor=#191919;points=[];aspect=fixed;resizable=0;verticalAlign=bottom;labelPosition=center;verticalLabelPosition=top;flipH=1;" parent="1" vertex="1">
                    <mxGeometry x="511" y="892" width="8" height="8" as="geometry"/>
                </mxCell>
                <mxCell id="148" value="" style="rounded=0;orthogonalLoop=1;jettySize=auto;html=1;endArrow=halfCircle;endFill=0;endSize=6;strokeWidth=1;sketch=0;fontSize=12;curved=1;exitX=0.5;exitY=1;exitDx=0;exitDy=0;entryX=0.087;entryY=0.121;entryDx=0;entryDy=0;entryPerimeter=0;" parent="1" source="138" target="69" edge="1">
                    <mxGeometry relative="1" as="geometry">
                        <mxPoint x="480" y="792" as="sourcePoint"/>
                        <mxPoint x="385" y="750" as="targetPoint"/>
                    </mxGeometry>
                </mxCell>
                <mxCell id="149" value="" style="endArrow=none;html=1;rounded=0;align=center;verticalAlign=top;endFill=0;labelBackgroundColor=none;endSize=2;exitX=0.25;exitY=0;exitDx=0;exitDy=0;" parent="1" source="131" target="150" edge="1">
                    <mxGeometry relative="1" as="geometry">
                        <mxPoint x="386" y="712" as="sourcePoint"/>
                        <mxPoint x="386" y="742" as="targetPoint"/>
                    </mxGeometry>
                </mxCell>
                <mxCell id="150" value="" style="ellipse;html=1;fontSize=11;align=center;fillColor=#191919;points=[];aspect=fixed;resizable=0;verticalAlign=bottom;labelPosition=center;verticalLabelPosition=top;flipH=1;" parent="1" vertex="1">
                    <mxGeometry x="241" y="732" width="8" height="8" as="geometry"/>
                </mxCell>
                <mxCell id="160" value="&lt;p style=&quot;margin:0px;margin-top:6px;text-align:center;&quot;&gt;&lt;span style=&quot;color: rgb(0, 0, 0);&quot;&gt;«Subsystem»&lt;/span&gt;&lt;/p&gt;&lt;p style=&quot;margin:0px;margin-top:6px;text-align:center;&quot;&gt;&lt;b&gt;Victim Reporting&lt;/b&gt;&lt;/p&gt;&lt;p style=&quot;margin:0px;margin-left:8px;&quot;&gt;&lt;br&gt;&lt;/p&gt;" style="align=left;overflow=fill;html=1;dropTarget=0;whiteSpace=wrap;" vertex="1" parent="1">
                    <mxGeometry x="1526" y="513.5" width="260" height="347" as="geometry"/>
                </mxCell>
                <mxCell id="161" value="" style="shape=component;jettyWidth=8;jettyHeight=4;" vertex="1" parent="160">
                    <mxGeometry x="1" width="20" height="20" relative="1" as="geometry">
                        <mxPoint x="-24" y="4" as="offset"/>
                    </mxGeometry>
                </mxCell>
                <mxCell id="162" value="&lt;p style=&quot;margin:0px;margin-top:6px;text-align:center;&quot;&gt;&lt;span style=&quot;color: rgb(0, 0, 0);&quot;&gt;«Subsystem»&lt;/span&gt;&lt;/p&gt;&lt;p style=&quot;margin:0px;margin-top:6px;text-align:center;&quot;&gt;&lt;b&gt;Assess_Person_Conditions&lt;/b&gt;&lt;/p&gt;&lt;p style=&quot;margin:0px;margin-left:8px;&quot;&gt;&lt;br&gt;&lt;/p&gt;" style="align=left;overflow=fill;html=1;dropTarget=0;whiteSpace=wrap;" vertex="1" parent="1">
                    <mxGeometry x="1380" y="152" width="451" height="318" as="geometry"/>
                </mxCell>
                <mxCell id="163" value="" style="shape=component;jettyWidth=8;jettyHeight=4;" vertex="1" parent="162">
                    <mxGeometry x="1" width="20" height="20" relative="1" as="geometry">
                        <mxPoint x="-24" y="4" as="offset"/>
                    </mxGeometry>
                </mxCell>
                <mxCell id="164" value="&lt;p style=&quot;margin:0px;margin-top:6px;text-align:center;&quot;&gt;&lt;span style=&quot;color: rgb(0, 0, 0);&quot;&gt;«Subsystem»&lt;/span&gt;&lt;/p&gt;&lt;p style=&quot;margin:0px;margin-top:6px;text-align:center;&quot;&gt;&lt;b&gt;Navigation&lt;/b&gt;&lt;/p&gt;&lt;p style=&quot;margin:0px;margin-left:8px;&quot;&gt;&lt;br&gt;&lt;/p&gt;" style="align=left;overflow=fill;html=1;dropTarget=0;whiteSpace=wrap;" vertex="1" parent="1">
                    <mxGeometry x="878" y="501" width="501" height="341" as="geometry"/>
                </mxCell>
                <mxCell id="165" value="" style="shape=component;jettyWidth=8;jettyHeight=4;" vertex="1" parent="164">
                    <mxGeometry x="1" width="20" height="20" relative="1" as="geometry">
                        <mxPoint x="-24" y="4" as="offset"/>
                    </mxGeometry>
                </mxCell>
                <mxCell id="168" value="«Component»&lt;br&gt;&lt;b&gt;RGB-D Camera&lt;/b&gt;" style="html=1;dropTarget=0;whiteSpace=wrap;" vertex="1" parent="1">
                    <mxGeometry x="760" y="187" width="180" height="90" as="geometry"/>
                </mxCell>
                <mxCell id="169" value="" style="shape=module;jettyWidth=8;jettyHeight=4;" vertex="1" parent="168">
                    <mxGeometry x="1" width="20" height="20" relative="1" as="geometry">
                        <mxPoint x="-27" y="7" as="offset"/>
                    </mxGeometry>
                </mxCell>
                <mxCell id="170" value="«Component»&lt;br&gt;&lt;b&gt;LiDAR&lt;/b&gt;" style="html=1;dropTarget=0;whiteSpace=wrap;" vertex="1" parent="1">
                    <mxGeometry x="759" y="289" width="180" height="90" as="geometry"/>
                </mxCell>
                <mxCell id="171" value="" style="shape=module;jettyWidth=8;jettyHeight=4;" vertex="1" parent="170">
                    <mxGeometry x="1" width="20" height="20" relative="1" as="geometry">
                        <mxPoint x="-27" y="7" as="offset"/>
                    </mxGeometry>
                </mxCell>
                <mxCell id="172" value="«Component»&lt;br&gt;&lt;b&gt;Sonar&lt;/b&gt;" style="html=1;dropTarget=0;whiteSpace=wrap;" vertex="1" parent="1">
                    <mxGeometry x="759" y="393" width="180" height="90" as="geometry"/>
                </mxCell>
                <mxCell id="173" value="" style="shape=module;jettyWidth=8;jettyHeight=4;" vertex="1" parent="172">
                    <mxGeometry x="1" width="20" height="20" relative="1" as="geometry">
                        <mxPoint x="-27" y="44" as="offset"/>
                    </mxGeometry>
                </mxCell>
                <mxCell id="174" value="«Component»&lt;br&gt;&lt;b&gt;Force Sensors&lt;/b&gt;" style="html=1;dropTarget=0;whiteSpace=wrap;" vertex="1" parent="1">
                    <mxGeometry x="72" y="152" width="180" height="90" as="geometry"/>
                </mxCell>
                <mxCell id="175" value="" style="shape=module;jettyWidth=8;jettyHeight=4;" vertex="1" parent="174">
                    <mxGeometry x="1" width="20" height="20" relative="1" as="geometry">
                        <mxPoint x="-27" y="7" as="offset"/>
                    </mxGeometry>
                </mxCell>
                <mxCell id="176" value="«Component»&lt;br&gt;&lt;b&gt;Odometry&lt;/b&gt;" style="html=1;dropTarget=0;whiteSpace=wrap;" vertex="1" parent="1">
                    <mxGeometry x="1120" y="558" width="180" height="90" as="geometry"/>
                </mxCell>
                <mxCell id="177" value="" style="shape=module;jettyWidth=8;jettyHeight=4;" vertex="1" parent="176">
                    <mxGeometry x="1" width="20" height="20" relative="1" as="geometry">
                        <mxPoint x="-27" y="7" as="offset"/>
                    </mxGeometry>
                </mxCell>
                <mxCell id="178" value="«Component»&lt;br&gt;&lt;b&gt;Arm Joint State&lt;/b&gt;" style="html=1;dropTarget=0;whiteSpace=wrap;" vertex="1" parent="1">
                    <mxGeometry x="72" y="50" width="180" height="90" as="geometry"/>
                </mxCell>
                <mxCell id="179" value="" style="shape=module;jettyWidth=8;jettyHeight=4;" vertex="1" parent="178">
                    <mxGeometry x="1" width="20" height="20" relative="1" as="geometry">
                        <mxPoint x="-27" y="7" as="offset"/>
                    </mxGeometry>
                </mxCell>
                <mxCell id="180" value="«Component»&lt;br&gt;&lt;b&gt;Person_Identification&lt;/b&gt;" style="html=1;dropTarget=0;whiteSpace=wrap;" vertex="1" parent="1">
                    <mxGeometry x="1141" y="212" width="180" height="90" as="geometry"/>
                </mxCell>
                <mxCell id="181" value="" style="shape=module;jettyWidth=8;jettyHeight=4;" vertex="1" parent="180">
                    <mxGeometry x="1" width="20" height="20" relative="1" as="geometry">
                        <mxPoint x="-27" y="7" as="offset"/>
                    </mxGeometry>
                </mxCell>
                <mxCell id="182" value="«Component»&lt;br&gt;&lt;b&gt;&lt;br&gt;Trajectory Control&lt;/b&gt;" style="html=1;dropTarget=0;whiteSpace=wrap;" vertex="1" parent="1">
                    <mxGeometry x="1131" y="728" width="180" height="90" as="geometry"/>
                </mxCell>
                <mxCell id="183" value="" style="shape=module;jettyWidth=8;jettyHeight=4;" vertex="1" parent="182">
                    <mxGeometry x="1" width="20" height="20" relative="1" as="geometry">
                        <mxPoint x="-27" y="7" as="offset"/>
                    </mxGeometry>
                </mxCell>
                <mxCell id="184" value="" style="rounded=0;orthogonalLoop=1;jettySize=auto;html=1;endArrow=halfCircle;endFill=0;endSize=6;strokeWidth=1;sketch=0;exitX=0.5;exitY=0;exitDx=0;exitDy=0;" edge="1" parent="1" source="182" target="186">
                    <mxGeometry relative="1" as="geometry">
                        <mxPoint x="1110" y="669" as="sourcePoint"/>
                    </mxGeometry>
                </mxCell>
                <mxCell id="185" value="" style="rounded=0;orthogonalLoop=1;jettySize=auto;html=1;endArrow=oval;endFill=0;sketch=0;sourcePerimeterSpacing=0;targetPerimeterSpacing=0;endSize=10;exitX=0.5;exitY=1;exitDx=0;exitDy=0;" edge="1" parent="1" source="176" target="186">
                    <mxGeometry relative="1" as="geometry">
                        <mxPoint x="1070" y="669" as="sourcePoint"/>
                    </mxGeometry>
                </mxCell>
                <mxCell id="186" value="" style="ellipse;whiteSpace=wrap;html=1;align=center;aspect=fixed;fillColor=none;strokeColor=none;resizable=0;perimeter=centerPerimeter;rotatable=0;allowArrows=0;points=[];outlineConnect=1;" vertex="1" parent="1">
                    <mxGeometry x="1208" y="674" width="10" height="10" as="geometry"/>
                </mxCell>
                <mxCell id="187" value="«Component»&lt;br&gt;&lt;b&gt;Message_Sender&lt;/b&gt;" style="html=1;dropTarget=0;whiteSpace=wrap;" vertex="1" parent="1">
                    <mxGeometry x="1831" y="582" width="180" height="90" as="geometry"/>
                </mxCell>
                <mxCell id="188" value="" style="shape=module;jettyWidth=8;jettyHeight=4;" vertex="1" parent="187">
                    <mxGeometry x="1" width="20" height="20" relative="1" as="geometry">
                        <mxPoint x="-27" y="7" as="offset"/>
                    </mxGeometry>
                </mxCell>
                <mxCell id="189" value="«Component»&lt;br&gt;&lt;b&gt;Compute_Object_Position&lt;/b&gt;" style="html=1;dropTarget=0;whiteSpace=wrap;" vertex="1" parent="1">
                    <mxGeometry x="1606" y="672" width="180" height="90" as="geometry"/>
                </mxCell>
                <mxCell id="190" value="" style="shape=module;jettyWidth=8;jettyHeight=4;" vertex="1" parent="189">
                    <mxGeometry x="1" width="20" height="20" relative="1" as="geometry">
                        <mxPoint x="-27" y="7" as="offset"/>
                    </mxGeometry>
                </mxCell>
                <mxCell id="191" value="" style="rounded=0;orthogonalLoop=1;jettySize=auto;html=1;endArrow=oval;endFill=0;sketch=0;sourcePerimeterSpacing=0;targetPerimeterSpacing=0;endSize=10;exitX=0.5;exitY=1;exitDx=0;exitDy=0;" edge="1" parent="1" source="221" target="192">
                    <mxGeometry relative="1" as="geometry">
                        <mxPoint x="939" y="177" as="sourcePoint"/>
                    </mxGeometry>
                </mxCell>
                <mxCell id="192" value="" style="ellipse;whiteSpace=wrap;html=1;align=center;aspect=fixed;fillColor=none;strokeColor=none;resizable=0;perimeter=centerPerimeter;rotatable=0;allowArrows=0;points=[];outlineConnect=1;" vertex="1" parent="1">
                    <mxGeometry x="1226" y="160" width="10" height="10" as="geometry"/>
                </mxCell>
                <mxCell id="193" value="" style="html=1;rounded=0;direction=south;" vertex="1" parent="1">
                    <mxGeometry x="672" y="241" width="30" height="30" as="geometry"/>
                </mxCell>
                <mxCell id="194" value="" style="rounded=0;orthogonalLoop=1;jettySize=auto;html=1;endArrow=halfCircle;endFill=0;endSize=6;strokeWidth=1;sketch=0;exitX=0.5;exitY=0;exitDx=0;exitDy=0;" edge="1" parent="1" source="193" target="196">
                    <mxGeometry relative="1" as="geometry">
                        <mxPoint x="982.0000000000002" y="231" as="sourcePoint"/>
                    </mxGeometry>
                </mxCell>
                <mxCell id="195" value="" style="rounded=0;orthogonalLoop=1;jettySize=auto;html=1;endArrow=oval;endFill=0;sketch=0;sourcePerimeterSpacing=0;targetPerimeterSpacing=0;endSize=10;exitX=0;exitY=0.5;exitDx=0;exitDy=0;" edge="1" parent="1" source="168" target="196">
                    <mxGeometry relative="1" as="geometry">
                        <mxPoint x="972" y="177" as="sourcePoint"/>
                    </mxGeometry>
                </mxCell>
                <mxCell id="196" value="" style="ellipse;whiteSpace=wrap;html=1;align=center;aspect=fixed;fillColor=none;strokeColor=none;resizable=0;perimeter=centerPerimeter;rotatable=0;allowArrows=0;points=[];outlineConnect=1;" vertex="1" parent="1">
                    <mxGeometry x="720" y="227" width="10" height="10" as="geometry"/>
                </mxCell>
                <mxCell id="197" value="" style="rounded=0;orthogonalLoop=1;jettySize=auto;html=1;endArrow=halfCircle;endFill=0;endSize=6;strokeWidth=1;sketch=0;exitX=0.5;exitY=1;exitDx=0;exitDy=0;" edge="1" parent="1" source="228" target="199">
                    <mxGeometry relative="1" as="geometry">
                        <mxPoint x="1074" y="336" as="sourcePoint"/>
                    </mxGeometry>
                </mxCell>
                <mxCell id="198" value="" style="rounded=0;orthogonalLoop=1;jettySize=auto;html=1;endArrow=oval;endFill=0;sketch=0;sourcePerimeterSpacing=0;targetPerimeterSpacing=0;endSize=10;exitX=0.5;exitY=1;exitDx=0;exitDy=0;" edge="1" parent="1" source="180" target="199">
                    <mxGeometry relative="1" as="geometry">
                        <mxPoint x="1231" y="357" as="sourcePoint"/>
                    </mxGeometry>
                </mxCell>
                <mxCell id="199" value="" style="ellipse;whiteSpace=wrap;html=1;align=center;aspect=fixed;fillColor=none;strokeColor=none;resizable=0;perimeter=centerPerimeter;rotatable=0;allowArrows=0;points=[];outlineConnect=1;" vertex="1" parent="1">
                    <mxGeometry x="1226" y="326" width="10" height="10" as="geometry"/>
                </mxCell>
                <mxCell id="200" value="" style="ellipse;whiteSpace=wrap;html=1;align=center;aspect=fixed;fillColor=none;strokeColor=none;resizable=0;perimeter=centerPerimeter;rotatable=0;allowArrows=0;points=[];outlineConnect=1;" vertex="1" parent="1">
                    <mxGeometry x="1086" y="261" width="10" height="10" as="geometry"/>
                </mxCell>
                <mxCell id="201" value="" style="html=1;rounded=0;" vertex="1" parent="1">
                    <mxGeometry x="1361" y="587" width="30" height="30" as="geometry"/>
                </mxCell>
                <mxCell id="202" value="" style="rounded=0;orthogonalLoop=1;jettySize=auto;html=1;endArrow=halfCircle;endFill=0;endSize=6;strokeWidth=1;sketch=0;exitX=0;exitY=0.5;exitDx=0;exitDy=0;" edge="1" parent="1" target="204">
                    <mxGeometry relative="1" as="geometry">
                        <mxPoint x="1361" y="603" as="sourcePoint"/>
                    </mxGeometry>
                </mxCell>
                <mxCell id="203" value="" style="rounded=0;orthogonalLoop=1;jettySize=auto;html=1;endArrow=oval;endFill=0;sketch=0;sourcePerimeterSpacing=0;targetPerimeterSpacing=0;endSize=10;exitX=1;exitY=0.5;exitDx=0;exitDy=0;" edge="1" parent="1" source="176" target="204">
                    <mxGeometry relative="1" as="geometry">
                        <mxPoint x="1296" y="603" as="sourcePoint"/>
                    </mxGeometry>
                </mxCell>
                <mxCell id="204" value="" style="ellipse;whiteSpace=wrap;html=1;align=center;aspect=fixed;fillColor=none;strokeColor=none;resizable=0;perimeter=centerPerimeter;rotatable=0;allowArrows=0;points=[];outlineConnect=1;" vertex="1" parent="1">
                    <mxGeometry x="1311" y="598" width="10" height="10" as="geometry"/>
                </mxCell>
                <mxCell id="205" value="" style="rounded=0;orthogonalLoop=1;jettySize=auto;html=1;endArrow=halfCircle;endFill=0;endSize=6;strokeWidth=1;sketch=0;exitX=0.5;exitY=1;exitDx=0;exitDy=0;" edge="1" parent="1" source="208" target="207">
                    <mxGeometry relative="1" as="geometry">
                        <mxPoint x="1701" y="839" as="sourcePoint"/>
                    </mxGeometry>
                </mxCell>
                <mxCell id="206" value="" style="rounded=0;orthogonalLoop=1;jettySize=auto;html=1;endArrow=oval;endFill=0;sketch=0;sourcePerimeterSpacing=0;targetPerimeterSpacing=0;endSize=10;exitX=1;exitY=0.5;exitDx=0;exitDy=0;" edge="1" parent="1" source="201" target="207">
                    <mxGeometry relative="1" as="geometry">
                        <mxPoint x="1538" y="388" as="sourcePoint"/>
                    </mxGeometry>
                </mxCell>
                <mxCell id="207" value="" style="ellipse;whiteSpace=wrap;html=1;align=center;aspect=fixed;fillColor=none;strokeColor=none;resizable=0;perimeter=centerPerimeter;rotatable=0;allowArrows=0;points=[];outlineConnect=1;" vertex="1" parent="1">
                    <mxGeometry x="1460" y="598" width="10" height="10" as="geometry"/>
                </mxCell>
                <mxCell id="208" value="" style="html=1;rounded=0;" vertex="1" parent="1">
                    <mxGeometry x="1540" y="781" width="30" height="30" as="geometry"/>
                </mxCell>
                <mxCell id="209" value="" style="rounded=0;orthogonalLoop=1;jettySize=auto;html=1;endArrow=halfCircle;endFill=0;endSize=6;strokeWidth=1;sketch=0;exitX=0.5;exitY=1;exitDx=0;exitDy=0;" edge="1" parent="1" source="189" target="211">
                    <mxGeometry relative="1" as="geometry">
                        <mxPoint x="1741" y="790" as="sourcePoint"/>
                    </mxGeometry>
                </mxCell>
                <mxCell id="210" value="" style="rounded=0;orthogonalLoop=1;jettySize=auto;html=1;endArrow=oval;endFill=0;sketch=0;sourcePerimeterSpacing=0;targetPerimeterSpacing=0;endSize=10;exitX=1;exitY=0.5;exitDx=0;exitDy=0;" edge="1" parent="1" source="208" target="211">
                    <mxGeometry relative="1" as="geometry">
                        <mxPoint x="1701" y="790" as="sourcePoint"/>
                    </mxGeometry>
                </mxCell>
                <mxCell id="211" value="" style="ellipse;whiteSpace=wrap;html=1;align=center;aspect=fixed;fillColor=none;strokeColor=none;resizable=0;perimeter=centerPerimeter;rotatable=0;allowArrows=0;points=[];outlineConnect=1;" vertex="1" parent="1">
                    <mxGeometry x="1691" y="788" width="10" height="10" as="geometry"/>
                </mxCell>
                <mxCell id="212" value="" style="rounded=0;orthogonalLoop=1;jettySize=auto;html=1;endArrow=halfCircle;endFill=0;endSize=6;strokeWidth=1;sketch=0;exitX=0.5;exitY=0;exitDx=0;exitDy=0;entryX=0.629;entryY=0.143;entryDx=0;entryDy=0;entryPerimeter=0;" edge="1" parent="1" source="187" target="214">
                    <mxGeometry relative="1" as="geometry">
                        <mxPoint x="1591" y="791" as="sourcePoint"/>
                    </mxGeometry>
                </mxCell>
                <mxCell id="213" value="" style="rounded=0;orthogonalLoop=1;jettySize=auto;html=1;endArrow=oval;endFill=0;sketch=0;sourcePerimeterSpacing=0;targetPerimeterSpacing=0;endSize=10;exitX=0.5;exitY=0;exitDx=0;exitDy=0;" edge="1" parent="1" source="229" target="214">
                    <mxGeometry relative="1" as="geometry">
                        <mxPoint x="1836" y="99" as="sourcePoint"/>
                        <Array as="points">
                            <mxPoint x="1870" y="414"/>
                        </Array>
                    </mxGeometry>
                </mxCell>
                <mxCell id="214" value="" style="ellipse;whiteSpace=wrap;html=1;align=center;aspect=fixed;fillColor=none;strokeColor=none;resizable=0;perimeter=centerPerimeter;rotatable=0;allowArrows=0;points=[];outlineConnect=1;" vertex="1" parent="1">
                    <mxGeometry x="1860" y="527" width="10" height="10" as="geometry"/>
                </mxCell>
                <mxCell id="215" value="" style="html=1;verticalAlign=bottom;labelBackgroundColor=none;endArrow=oval;endFill=0;endSize=8;exitX=1;exitY=0.5;exitDx=0;exitDy=0;" edge="1" parent="1" source="182">
                    <mxGeometry width="160" relative="1" as="geometry">
                        <mxPoint x="1456" y="757" as="sourcePoint"/>
                        <mxPoint x="1416" y="772" as="targetPoint"/>
                    </mxGeometry>
                </mxCell>
                <mxCell id="216" value="" style="rounded=0;orthogonalLoop=1;jettySize=auto;html=1;endArrow=halfCircle;endFill=0;endSize=6;strokeWidth=1;sketch=0;exitX=0.5;exitY=0;exitDx=0;exitDy=0;" edge="1" parent="1" source="189" target="218">
                    <mxGeometry relative="1" as="geometry">
                        <mxPoint x="1721" y="665" as="sourcePoint"/>
                    </mxGeometry>
                </mxCell>
                <mxCell id="217" value="" style="rounded=0;orthogonalLoop=1;jettySize=auto;html=1;endArrow=oval;endFill=0;sketch=0;sourcePerimeterSpacing=0;targetPerimeterSpacing=0;endSize=10;exitX=0;exitY=0.5;exitDx=0;exitDy=0;" edge="1" parent="1" source="187" target="218">
                    <mxGeometry relative="1" as="geometry">
                        <mxPoint x="1681" y="665" as="sourcePoint"/>
                    </mxGeometry>
                </mxCell>
                <mxCell id="218" value="" style="ellipse;whiteSpace=wrap;html=1;align=center;aspect=fixed;fillColor=none;strokeColor=none;resizable=0;perimeter=centerPerimeter;rotatable=0;allowArrows=0;points=[];outlineConnect=1;" vertex="1" parent="1">
                    <mxGeometry x="1691" y="645" width="10" height="10" as="geometry"/>
                </mxCell>
                <mxCell id="219" value="" style="rounded=0;orthogonalLoop=1;jettySize=auto;html=1;endArrow=halfCircle;endFill=0;endSize=6;strokeWidth=1;sketch=0;exitX=0.5;exitY=0;exitDx=0;exitDy=0;" edge="1" parent="1" source="180" target="220">
                    <mxGeometry relative="1" as="geometry">
                        <mxPoint x="1116" y="217" as="sourcePoint"/>
                    </mxGeometry>
                </mxCell>
                <mxCell id="220" value="" style="ellipse;whiteSpace=wrap;html=1;align=center;aspect=fixed;fillColor=none;strokeColor=none;resizable=0;perimeter=centerPerimeter;rotatable=0;allowArrows=0;points=[];outlineConnect=1;" vertex="1" parent="1">
                    <mxGeometry x="1226" y="160" width="10" height="10" as="geometry"/>
                </mxCell>
                <mxCell id="221" value="«Artifact&lt;span style=&quot;background-color: transparent;&quot;&gt;»&lt;/span&gt;&lt;div&gt;&lt;b&gt;speaker_service.py&lt;/b&gt;&lt;/div&gt;" style="html=1;dropTarget=0;whiteSpace=wrap;" vertex="1" parent="1">
                    <mxGeometry x="1141" y="40" width="180" height="90" as="geometry"/>
                </mxCell>
                <mxCell id="222" value="«Component»&lt;br&gt;&lt;b&gt;Evaluate_consciousness&lt;/b&gt;" style="html=1;dropTarget=0;whiteSpace=wrap;" vertex="1" parent="1">
                    <mxGeometry x="1440" y="361" width="180" height="90" as="geometry"/>
                </mxCell>
                <mxCell id="223" value="" style="shape=module;jettyWidth=8;jettyHeight=4;" vertex="1" parent="222">
                    <mxGeometry x="1" width="20" height="20" relative="1" as="geometry">
                        <mxPoint x="-27" y="7" as="offset"/>
                    </mxGeometry>
                </mxCell>
                <mxCell id="224" value="«Component»&lt;br&gt;&lt;b&gt;Evaluate_responsiveness&lt;/b&gt;" style="html=1;dropTarget=0;whiteSpace=wrap;" vertex="1" parent="1">
                    <mxGeometry x="1440" y="211" width="180" height="90" as="geometry"/>
                </mxCell>
                <mxCell id="225" value="" style="shape=module;jettyWidth=8;jettyHeight=4;" vertex="1" parent="224">
                    <mxGeometry x="1" width="20" height="20" relative="1" as="geometry">
                        <mxPoint x="-27" y="7" as="offset"/>
                    </mxGeometry>
                </mxCell>
                <mxCell id="226" value="«Component»&lt;br&gt;&lt;b&gt;Evaluate_priority&lt;/b&gt;" style="html=1;dropTarget=0;whiteSpace=wrap;" vertex="1" parent="1">
                    <mxGeometry x="1636" y="261" width="180" height="90" as="geometry"/>
                </mxCell>
                <mxCell id="227" value="" style="shape=module;jettyWidth=8;jettyHeight=4;" vertex="1" parent="226">
                    <mxGeometry x="1" width="20" height="20" relative="1" as="geometry">
                        <mxPoint x="-27" y="7" as="offset"/>
                    </mxGeometry>
                </mxCell>
                <mxCell id="228" value="" style="html=1;rounded=0;direction=south;" vertex="1" parent="1">
                    <mxGeometry x="1361" y="316" width="30" height="30" as="geometry"/>
                </mxCell>
                <mxCell id="229" value="" style="html=1;rounded=0;direction=south;" vertex="1" parent="1">
                    <mxGeometry x="1816" y="399" width="30" height="30" as="geometry"/>
                </mxCell>
                <mxCell id="230" value="" style="rounded=0;orthogonalLoop=1;jettySize=auto;html=1;endArrow=halfCircle;endFill=0;endSize=6;strokeWidth=1;sketch=0;exitX=0.5;exitY=1;exitDx=0;exitDy=0;" edge="1" parent="1" source="229" target="232">
                    <mxGeometry relative="1" as="geometry">
                        <mxPoint x="1770" y="416" as="sourcePoint"/>
                    </mxGeometry>
                </mxCell>
                <mxCell id="231" value="" style="rounded=0;orthogonalLoop=1;jettySize=auto;html=1;endArrow=oval;endFill=0;sketch=0;sourcePerimeterSpacing=0;targetPerimeterSpacing=0;endSize=10;exitX=0.5;exitY=1;exitDx=0;exitDy=0;" edge="1" parent="1" source="226" target="232">
                    <mxGeometry relative="1" as="geometry">
                        <mxPoint x="1730" y="416" as="sourcePoint"/>
                    </mxGeometry>
                </mxCell>
                <mxCell id="232" value="" style="ellipse;whiteSpace=wrap;html=1;align=center;aspect=fixed;fillColor=none;strokeColor=none;resizable=0;perimeter=centerPerimeter;rotatable=0;allowArrows=0;points=[];outlineConnect=1;" vertex="1" parent="1">
                    <mxGeometry x="1721" y="409" width="10" height="10" as="geometry"/>
                </mxCell>
                <mxCell id="233" value="" style="rounded=0;orthogonalLoop=1;jettySize=auto;html=1;endArrow=halfCircle;endFill=0;endSize=6;strokeWidth=1;sketch=0;exitX=0.25;exitY=0;exitDx=0;exitDy=0;" edge="1" parent="1" source="226" target="235">
                    <mxGeometry relative="1" as="geometry">
                        <mxPoint x="1721" y="230" as="sourcePoint"/>
                    </mxGeometry>
                </mxCell>
                <mxCell id="234" value="" style="rounded=0;orthogonalLoop=1;jettySize=auto;html=1;endArrow=oval;endFill=0;sketch=0;sourcePerimeterSpacing=0;targetPerimeterSpacing=0;endSize=10;exitX=1;exitY=0.25;exitDx=0;exitDy=0;" edge="1" parent="1" source="224" target="235">
                    <mxGeometry relative="1" as="geometry">
                        <mxPoint x="1681" y="230" as="sourcePoint"/>
                    </mxGeometry>
                </mxCell>
                <mxCell id="235" value="" style="ellipse;whiteSpace=wrap;html=1;align=center;aspect=fixed;fillColor=none;strokeColor=none;resizable=0;perimeter=centerPerimeter;rotatable=0;allowArrows=0;points=[];outlineConnect=1;" vertex="1" parent="1">
                    <mxGeometry x="1677" y="228" width="10" height="10" as="geometry"/>
                </mxCell>
                <mxCell id="236" value="" style="rounded=0;orthogonalLoop=1;jettySize=auto;html=1;endArrow=halfCircle;endFill=0;endSize=6;strokeWidth=1;sketch=0;exitX=0;exitY=0.5;exitDx=0;exitDy=0;" edge="1" parent="1" source="224" target="238">
                    <mxGeometry relative="1" as="geometry">
                        <mxPoint x="1450" y="256" as="sourcePoint"/>
                    </mxGeometry>
                </mxCell>
                <mxCell id="237" value="" style="rounded=0;orthogonalLoop=1;jettySize=auto;html=1;endArrow=oval;endFill=0;sketch=0;sourcePerimeterSpacing=0;targetPerimeterSpacing=0;endSize=10;exitX=0.5;exitY=0;exitDx=0;exitDy=0;" edge="1" parent="1" source="228" target="238">
                    <mxGeometry relative="1" as="geometry">
                        <mxPoint x="1410" y="256" as="sourcePoint"/>
                    </mxGeometry>
                </mxCell>
                <mxCell id="238" value="" style="ellipse;whiteSpace=wrap;html=1;align=center;aspect=fixed;fillColor=none;strokeColor=none;resizable=0;perimeter=centerPerimeter;rotatable=0;allowArrows=0;points=[];outlineConnect=1;" vertex="1" parent="1">
                    <mxGeometry x="1406" y="326" width="10" height="10" as="geometry"/>
                </mxCell>
                <mxCell id="239" value="" style="rounded=0;orthogonalLoop=1;jettySize=auto;html=1;endArrow=halfCircle;endFill=0;endSize=6;strokeWidth=1;sketch=0;fontSize=12;curved=1;exitX=0;exitY=0.5;exitDx=0;exitDy=0;entryX=0.53;entryY=0.667;entryDx=0;entryDy=0;entryPerimeter=0;" edge="1" parent="1" source="222" target="238">
                    <mxGeometry relative="1" as="geometry">
                        <mxPoint x="1431" y="295" as="sourcePoint"/>
                    </mxGeometry>
                </mxCell>
                <mxCell id="240" value="" style="ellipse;whiteSpace=wrap;html=1;align=center;aspect=fixed;fillColor=none;strokeColor=none;resizable=0;perimeter=centerPerimeter;rotatable=0;allowArrows=0;points=[];outlineConnect=1;" vertex="1" parent="1">
                    <mxGeometry x="1406" y="290" width="10" height="10" as="geometry"/>
                </mxCell>
                <mxCell id="241" value="" style="rounded=0;orthogonalLoop=1;jettySize=auto;html=1;endArrow=halfCircle;endFill=0;endSize=6;strokeWidth=1;sketch=0;exitX=0.25;exitY=1;exitDx=0;exitDy=0;" edge="1" parent="1" source="226" target="243">
                    <mxGeometry relative="1" as="geometry">
                        <mxPoint x="1670" y="398" as="sourcePoint"/>
                    </mxGeometry>
                </mxCell>
                <mxCell id="242" value="" style="rounded=0;orthogonalLoop=1;jettySize=auto;html=1;endArrow=oval;endFill=0;sketch=0;sourcePerimeterSpacing=0;targetPerimeterSpacing=0;endSize=10;exitX=1;exitY=0.5;exitDx=0;exitDy=0;" edge="1" parent="1" source="222" target="243">
                    <mxGeometry relative="1" as="geometry">
                        <mxPoint x="1630" y="398" as="sourcePoint"/>
                    </mxGeometry>
                </mxCell>
                <mxCell id="243" value="" style="ellipse;whiteSpace=wrap;html=1;align=center;aspect=fixed;fillColor=none;strokeColor=none;resizable=0;perimeter=centerPerimeter;rotatable=0;allowArrows=0;points=[];outlineConnect=1;" vertex="1" parent="1">
                    <mxGeometry x="1645" y="393" width="10" height="10" as="geometry"/>
                </mxCell>
                <mxCell id="244" value="" style="rounded=0;orthogonalLoop=1;jettySize=auto;html=1;endArrow=halfCircle;endFill=0;endSize=6;strokeWidth=1;sketch=0;exitX=0;exitY=0.5;exitDx=0;exitDy=0;" edge="1" parent="1" source="180" target="246">
                    <mxGeometry relative="1" as="geometry">
                        <mxPoint x="1096" y="268" as="sourcePoint"/>
                        <Array as="points">
                            <mxPoint x="1030" y="100"/>
                            <mxPoint x="670" y="110"/>
                        </Array>
                    </mxGeometry>
                </mxCell>
                <mxCell id="245" value="" style="rounded=0;orthogonalLoop=1;jettySize=auto;html=1;endArrow=oval;endFill=0;sketch=0;sourcePerimeterSpacing=0;targetPerimeterSpacing=0;endSize=10;exitX=0.5;exitY=1;exitDx=0;exitDy=0;" edge="1" parent="1" source="193" target="246">
                    <mxGeometry relative="1" as="geometry">
                        <mxPoint x="1056" y="268" as="sourcePoint"/>
                        <Array as="points">
                            <mxPoint x="630" y="270"/>
                        </Array>
                    </mxGeometry>
                </mxCell>
                <mxCell id="246" value="" style="ellipse;whiteSpace=wrap;html=1;align=center;aspect=fixed;fillColor=none;strokeColor=none;resizable=0;perimeter=centerPerimeter;rotatable=0;allowArrows=0;points=[];outlineConnect=1;" vertex="1" parent="1">
                    <mxGeometry x="600" y="266" width="10" height="10" as="geometry"/>
                </mxCell>
                <mxCell id="249" value="" style="rounded=0;orthogonalLoop=1;jettySize=auto;html=1;endArrow=halfCircle;endFill=0;endSize=6;strokeWidth=1;sketch=0;exitX=1;exitY=0.5;exitDx=0;exitDy=0;" edge="1" target="251" parent="1" source="51">
                    <mxGeometry relative="1" as="geometry">
                        <mxPoint x="640" y="248" as="sourcePoint"/>
                    </mxGeometry>
                </mxCell>
                <mxCell id="250" value="" style="rounded=0;orthogonalLoop=1;jettySize=auto;html=1;endArrow=oval;endFill=0;sketch=0;sourcePerimeterSpacing=0;targetPerimeterSpacing=0;endSize=10;exitX=0;exitY=0.5;exitDx=0;exitDy=0;" edge="1" target="251" parent="1" source="170">
                    <mxGeometry relative="1" as="geometry">
                        <mxPoint x="600" y="248" as="sourcePoint"/>
                    </mxGeometry>
                </mxCell>
                <mxCell id="251" value="" style="ellipse;whiteSpace=wrap;html=1;align=center;aspect=fixed;fillColor=none;strokeColor=none;resizable=0;perimeter=centerPerimeter;rotatable=0;allowArrows=0;points=[];outlineConnect=1;" vertex="1" parent="1">
                    <mxGeometry x="730" y="329" width="10" height="10" as="geometry"/>
                </mxCell>
                <mxCell id="256" value="" style="html=1;rounded=0;" vertex="1" parent="1">
                    <mxGeometry x="680" y="424" width="30" height="30" as="geometry"/>
                </mxCell>
                <mxCell id="257" value="" style="rounded=0;orthogonalLoop=1;jettySize=auto;html=1;endArrow=halfCircle;endFill=0;endSize=6;strokeWidth=1;sketch=0;exitX=1;exitY=0.5;exitDx=0;exitDy=0;" edge="1" parent="1" source="256" target="259">
                    <mxGeometry relative="1" as="geometry">
                        <mxPoint x="640" y="364" as="sourcePoint"/>
                    </mxGeometry>
                </mxCell>
                <mxCell id="258" value="" style="rounded=0;orthogonalLoop=1;jettySize=auto;html=1;endArrow=oval;endFill=0;sketch=0;sourcePerimeterSpacing=0;targetPerimeterSpacing=0;endSize=10;exitX=0;exitY=0.5;exitDx=0;exitDy=0;" edge="1" parent="1" target="259" source="172">
                    <mxGeometry relative="1" as="geometry">
                        <mxPoint x="759" y="450" as="sourcePoint"/>
                    </mxGeometry>
                </mxCell>
                <mxCell id="259" value="" style="ellipse;whiteSpace=wrap;html=1;align=center;aspect=fixed;fillColor=none;strokeColor=none;resizable=0;perimeter=centerPerimeter;rotatable=0;allowArrows=0;points=[];outlineConnect=1;" vertex="1" parent="1">
                    <mxGeometry x="730" y="433" width="10" height="10" as="geometry"/>
                </mxCell>
                <mxCell id="262" value="" style="rounded=0;orthogonalLoop=1;jettySize=auto;html=1;endArrow=halfCircle;endFill=0;endSize=6;strokeWidth=1;sketch=0;exitX=0.5;exitY=0;exitDx=0;exitDy=0;" edge="1" target="264" parent="1" source="73">
                    <mxGeometry relative="1" as="geometry">
                        <mxPoint x="613" y="485" as="sourcePoint"/>
                    </mxGeometry>
                </mxCell>
                <mxCell id="263" value="" style="rounded=0;orthogonalLoop=1;jettySize=auto;html=1;endArrow=oval;endFill=0;sketch=0;sourcePerimeterSpacing=0;targetPerimeterSpacing=0;endSize=10;exitX=0;exitY=0.5;exitDx=0;exitDy=0;" edge="1" target="264" parent="1" source="51">
                    <mxGeometry relative="1" as="geometry">
                        <mxPoint x="573" y="485" as="sourcePoint"/>
                    </mxGeometry>
                </mxCell>
                <mxCell id="264" value="" style="ellipse;whiteSpace=wrap;html=1;align=center;aspect=fixed;fillColor=none;strokeColor=none;resizable=0;perimeter=centerPerimeter;rotatable=0;allowArrows=0;points=[];outlineConnect=1;" vertex="1" parent="1">
                    <mxGeometry x="588" y="480" width="10" height="10" as="geometry"/>
                </mxCell>
                <mxCell id="265" value="" style="rounded=0;orthogonalLoop=1;jettySize=auto;html=1;endArrow=halfCircle;endFill=0;endSize=6;strokeWidth=1;sketch=0;exitX=0.5;exitY=0;exitDx=0;exitDy=0;" edge="1" target="267" parent="1" source="74">
                    <mxGeometry relative="1" as="geometry">
                        <mxPoint x="667" y="540" as="sourcePoint"/>
                    </mxGeometry>
                </mxCell>
                <mxCell id="266" value="" style="rounded=0;orthogonalLoop=1;jettySize=auto;html=1;endArrow=oval;endFill=0;sketch=0;sourcePerimeterSpacing=0;targetPerimeterSpacing=0;endSize=10;exitX=0;exitY=0.5;exitDx=0;exitDy=0;" edge="1" target="267" parent="1" source="256">
                    <mxGeometry relative="1" as="geometry">
                        <mxPoint x="627" y="540" as="sourcePoint"/>
                    </mxGeometry>
                </mxCell>
                <mxCell id="267" value="" style="ellipse;whiteSpace=wrap;html=1;align=center;aspect=fixed;fillColor=none;strokeColor=none;resizable=0;perimeter=centerPerimeter;rotatable=0;allowArrows=0;points=[];outlineConnect=1;" vertex="1" parent="1">
                    <mxGeometry x="642" y="535" width="10" height="10" as="geometry"/>
                </mxCell>
                <mxCell id="268" value="" style="rounded=0;orthogonalLoop=1;jettySize=auto;html=1;endArrow=halfCircle;endFill=0;endSize=6;strokeWidth=1;sketch=0;exitX=0.5;exitY=0;exitDx=0;exitDy=0;" edge="1" target="270" parent="1" source="138">
                    <mxGeometry relative="1" as="geometry">
                        <mxPoint x="215" y="506" as="sourcePoint"/>
                    </mxGeometry>
                </mxCell>
                <mxCell id="269" value="" style="rounded=0;orthogonalLoop=1;jettySize=auto;html=1;endArrow=oval;endFill=0;sketch=0;sourcePerimeterSpacing=0;targetPerimeterSpacing=0;endSize=10;exitX=0.5;exitY=1;exitDx=0;exitDy=0;" edge="1" target="270" parent="1" source="109">
                    <mxGeometry relative="1" as="geometry">
                        <mxPoint x="175" y="506" as="sourcePoint"/>
                    </mxGeometry>
                </mxCell>
                <mxCell id="270" value="" style="ellipse;whiteSpace=wrap;html=1;align=center;aspect=fixed;fillColor=none;strokeColor=none;resizable=0;perimeter=centerPerimeter;rotatable=0;allowArrows=0;points=[];outlineConnect=1;" vertex="1" parent="1">
                    <mxGeometry x="190" y="501" width="10" height="10" as="geometry"/>
                </mxCell>
                <mxCell id="273" value="«Component»&lt;br&gt;&lt;b&gt;SLAM&lt;/b&gt;" style="html=1;dropTarget=0;whiteSpace=wrap;" vertex="1" parent="1">
                    <mxGeometry x="925" y="721" width="180" height="90" as="geometry"/>
                </mxCell>
                <mxCell id="274" value="" style="shape=module;jettyWidth=8;jettyHeight=4;" vertex="1" parent="273">
                    <mxGeometry x="1" width="20" height="20" relative="1" as="geometry">
                        <mxPoint x="-27" y="7" as="offset"/>
                    </mxGeometry>
                </mxCell>
                <mxCell id="275" value="" style="rounded=0;orthogonalLoop=1;jettySize=auto;html=1;endArrow=halfCircle;endFill=0;endSize=6;strokeWidth=1;sketch=0;exitX=0.5;exitY=0;exitDx=0;exitDy=0;" edge="1" target="277" parent="1" source="273">
                    <mxGeometry relative="1" as="geometry">
                        <mxPoint x="1030" y="602" as="sourcePoint"/>
                    </mxGeometry>
                </mxCell>
                <mxCell id="276" value="" style="rounded=0;orthogonalLoop=1;jettySize=auto;html=1;endArrow=oval;endFill=0;sketch=0;sourcePerimeterSpacing=0;targetPerimeterSpacing=0;endSize=10;exitX=0;exitY=0.5;exitDx=0;exitDy=0;" edge="1" target="277" parent="1" source="176">
                    <mxGeometry relative="1" as="geometry">
                        <mxPoint x="990" y="602" as="sourcePoint"/>
                    </mxGeometry>
                </mxCell>
                <mxCell id="277" value="" style="ellipse;whiteSpace=wrap;html=1;align=center;aspect=fixed;fillColor=none;strokeColor=none;resizable=0;perimeter=centerPerimeter;rotatable=0;allowArrows=0;points=[];outlineConnect=1;" vertex="1" parent="1">
                    <mxGeometry x="1058" y="598" width="10" height="10" as="geometry"/>
                </mxCell>
                <mxCell id="278" value="" style="rounded=0;orthogonalLoop=1;jettySize=auto;html=1;endArrow=halfCircle;endFill=0;endSize=6;strokeWidth=1;sketch=0;fontSize=12;curved=1;entryX=0.44;entryY=0.64;entryDx=0;entryDy=0;entryPerimeter=0;exitX=0;exitY=0.5;exitDx=0;exitDy=0;" edge="1" target="264" parent="1" source="280">
                    <mxGeometry relative="1" as="geometry">
                        <mxPoint x="850" y="650" as="sourcePoint"/>
                    </mxGeometry>
                </mxCell>
                <mxCell id="279" value="" style="ellipse;whiteSpace=wrap;html=1;align=center;aspect=fixed;fillColor=none;strokeColor=none;resizable=0;perimeter=centerPerimeter;rotatable=0;allowArrows=0;points=[];outlineConnect=1;" vertex="1" parent="1">
                    <mxGeometry x="788" y="587" width="10" height="10" as="geometry"/>
                </mxCell>
                <mxCell id="280" value="" style="html=1;rounded=0;" vertex="1" parent="1">
                    <mxGeometry x="859" y="668" width="30" height="30" as="geometry"/>
                </mxCell>
                <mxCell id="281" value="" style="rounded=0;orthogonalLoop=1;jettySize=auto;html=1;endArrow=halfCircle;endFill=0;endSize=6;strokeWidth=1;sketch=0;exitX=0.25;exitY=0;exitDx=0;exitDy=0;" edge="1" target="283" parent="1" source="273">
                    <mxGeometry relative="1" as="geometry">
                        <mxPoint x="940" y="687" as="sourcePoint"/>
                    </mxGeometry>
                </mxCell>
                <mxCell id="282" value="" style="rounded=0;orthogonalLoop=1;jettySize=auto;html=1;endArrow=oval;endFill=0;sketch=0;sourcePerimeterSpacing=0;targetPerimeterSpacing=0;endSize=10;exitX=1;exitY=0.5;exitDx=0;exitDy=0;" edge="1" target="283" parent="1" source="280">
                    <mxGeometry relative="1" as="geometry">
                        <mxPoint x="900" y="687" as="sourcePoint"/>
                    </mxGeometry>
                </mxCell>
                <mxCell id="283" value="" style="ellipse;whiteSpace=wrap;html=1;align=center;aspect=fixed;fillColor=none;strokeColor=none;resizable=0;perimeter=centerPerimeter;rotatable=0;allowArrows=0;points=[];outlineConnect=1;" vertex="1" parent="1">
                    <mxGeometry x="915" y="682" width="10" height="10" as="geometry"/>
                </mxCell>
                <mxCell id="284" value="" style="rounded=0;orthogonalLoop=1;jettySize=auto;html=1;endArrow=halfCircle;endFill=0;endSize=6;strokeWidth=1;sketch=0;fontSize=12;curved=1;entryX=0.482;entryY=0.847;entryDx=0;entryDy=0;entryPerimeter=0;exitX=0;exitY=0.5;exitDx=0;exitDy=0;" edge="1" parent="1" source="286" target="246">
                    <mxGeometry relative="1" as="geometry">
                        <mxPoint x="850" y="620" as="sourcePoint"/>
                        <mxPoint x="580" y="420" as="targetPoint"/>
                    </mxGeometry>
                </mxCell>
                <mxCell id="285" value="" style="rounded=0;orthogonalLoop=1;jettySize=auto;html=1;endArrow=halfCircle;endFill=0;endSize=6;strokeWidth=1;sketch=0;fontSize=12;curved=1;entryX=0.518;entryY=1.147;entryDx=0;entryDy=0;entryPerimeter=0;exitX=0;exitY=0.5;exitDx=0;exitDy=0;" edge="1" parent="1" source="287" target="267">
                    <mxGeometry relative="1" as="geometry">
                        <mxPoint x="840" y="640" as="sourcePoint"/>
                        <mxPoint x="613" y="505" as="targetPoint"/>
                    </mxGeometry>
                </mxCell>
                <mxCell id="286" value="" style="html=1;rounded=0;" vertex="1" parent="1">
                    <mxGeometry x="859" y="527" width="30" height="30" as="geometry"/>
                </mxCell>
                <mxCell id="287" value="" style="html=1;rounded=0;" vertex="1" parent="1">
                    <mxGeometry x="859" y="587" width="30" height="30" as="geometry"/>
                </mxCell>
                <mxCell id="289" value="" style="rounded=0;orthogonalLoop=1;jettySize=auto;html=1;endArrow=halfCircle;endFill=0;endSize=6;strokeWidth=1;sketch=0;exitX=0.407;exitY=0.027;exitDx=0;exitDy=0;exitPerimeter=0;" edge="1" target="291" parent="1" source="273">
                    <mxGeometry relative="1" as="geometry">
                        <mxPoint x="1000" y="613" as="sourcePoint"/>
                    </mxGeometry>
                </mxCell>
                <mxCell id="290" value="" style="rounded=0;orthogonalLoop=1;jettySize=auto;html=1;endArrow=oval;endFill=0;sketch=0;sourcePerimeterSpacing=0;targetPerimeterSpacing=0;endSize=10;exitX=1;exitY=0.5;exitDx=0;exitDy=0;" edge="1" target="291" parent="1" source="286">
                    <mxGeometry relative="1" as="geometry">
                        <mxPoint x="960" y="613" as="sourcePoint"/>
                    </mxGeometry>
                </mxCell>
                <mxCell id="291" value="" style="ellipse;whiteSpace=wrap;html=1;align=center;aspect=fixed;fillColor=none;strokeColor=none;resizable=0;perimeter=centerPerimeter;rotatable=0;allowArrows=0;points=[];outlineConnect=1;" vertex="1" parent="1">
                    <mxGeometry x="975" y="608" width="10" height="10" as="geometry"/>
                </mxCell>
                <mxCell id="293" value="" style="rounded=0;orthogonalLoop=1;jettySize=auto;html=1;endArrow=halfCircle;endFill=0;endSize=6;strokeWidth=1;sketch=0;" edge="1" target="295" parent="1" source="273">
                    <mxGeometry relative="1" as="geometry">
                        <mxPoint x="965" y="641" as="sourcePoint"/>
                    </mxGeometry>
                </mxCell>
                <mxCell id="294" value="" style="rounded=0;orthogonalLoop=1;jettySize=auto;html=1;endArrow=oval;endFill=0;sketch=0;sourcePerimeterSpacing=0;targetPerimeterSpacing=0;endSize=10;exitX=1;exitY=0.5;exitDx=0;exitDy=0;" edge="1" target="295" parent="1" source="287">
                    <mxGeometry relative="1" as="geometry">
                        <mxPoint x="925" y="641" as="sourcePoint"/>
                    </mxGeometry>
                </mxCell>
                <mxCell id="295" value="" style="ellipse;whiteSpace=wrap;html=1;align=center;aspect=fixed;fillColor=none;strokeColor=none;resizable=0;perimeter=centerPerimeter;rotatable=0;allowArrows=0;points=[];outlineConnect=1;" vertex="1" parent="1">
                    <mxGeometry x="940" y="636" width="10" height="10" as="geometry"/>
                </mxCell>
                <mxCell id="298" value="" style="rounded=0;orthogonalLoop=1;jettySize=auto;html=1;endArrow=halfCircle;endFill=0;endSize=6;strokeWidth=1;sketch=0;fontSize=12;curved=1;entryX=0.659;entryY=0.588;entryDx=0;entryDy=0;entryPerimeter=0;exitX=0;exitY=0.25;exitDx=0;exitDy=0;" edge="1" target="199" parent="1" source="299">
                    <mxGeometry relative="1" as="geometry">
                        <mxPoint x="1246" y="418" as="sourcePoint"/>
                    </mxGeometry>
                </mxCell>
                <mxCell id="300" value="" style="rounded=0;orthogonalLoop=1;jettySize=auto;html=1;endArrow=halfCircle;endFill=0;endSize=6;strokeWidth=1;sketch=0;fontSize=12;curved=1;entryX=0.659;entryY=0.588;entryDx=0;entryDy=0;entryPerimeter=0;exitX=0;exitY=0.25;exitDx=0;exitDy=0;" edge="1" parent="1" source="187" target="299">
                    <mxGeometry relative="1" as="geometry">
                        <mxPoint x="1831" y="605" as="sourcePoint"/>
                        <mxPoint x="1231" y="331" as="targetPoint"/>
                    </mxGeometry>
                </mxCell>
                <mxCell id="299" value="" style="ellipse;whiteSpace=wrap;html=1;align=center;aspect=fixed;fillColor=none;strokeColor=none;resizable=0;perimeter=centerPerimeter;rotatable=0;allowArrows=0;points=[];outlineConnect=1;" vertex="1" parent="1">
                    <mxGeometry x="1226" y="326" width="10" height="10" as="geometry"/>
                </mxCell>
            </root>
        </mxGraphModel>
    </diagram>
</mxfile>